<svg xmlns="http://www.w3.org/2000/svg" width="30" height="36.843" viewBox="0 0 30 36.843">
  <g id="apple" transform="translate(-47.548)">
    <path id="Caminho_36" data-name="Caminho 36" d="M72.6,19.576a8.336,8.336,0,0,1,3.977-7.015A8.6,8.6,0,0,0,69.844,8.91c-2.869-.29-5.6,1.689-7.054,1.689s-3.7-1.646-6.079-1.6a9.014,9.014,0,0,0-7.621,4.619c-3.249,5.638-.832,13.99,2.335,18.563,1.547,2.238,3.393,4.752,5.815,4.662,2.333-.093,3.215-1.51,6.036-1.51s3.613,1.51,6.082,1.463c2.51-.047,4.1-2.281,5.638-4.526a20.315,20.315,0,0,0,2.552-5.239A8.137,8.137,0,0,1,72.6,19.576ZM67.965,5.883A8.12,8.12,0,0,0,69.882,0a8.26,8.26,0,0,0-5.426,2.79,7.724,7.724,0,0,0-1.956,5.7A6.833,6.833,0,0,0,67.965,5.883Z" fill="#fff"/>
  </g>
</svg>
