<svg xmlns="http://www.w3.org/2000/svg" width="20" height="20" viewBox="0 0 20 20">
  <g id="checked" transform="translate(0 -0.003)">
    <path id="Caminho_384" data-name="Caminho 384" d="M20,10A10,10,0,1,0,10,20,10,10,0,0,0,20,10Z" fill="#7accc6"/>
    <path id="Caminho_385" data-name="Caminho 385" d="M120.777,153.436c-.235-.607-.715-.511-1.235-.408-.31.065-1.691.469-3.876,2.772a18.47,18.47,0,0,0-1.9,2.3,12.083,12.083,0,0,0-.805-.9,11.657,11.657,0,0,0-1.924-1.526.885.885,0,0,0-.924,1.509,9.968,9.968,0,0,1,1.6,1.269,13.729,13.729,0,0,1,1.438,1.776.885.885,0,0,0,1.595-.277,10.306,10.306,0,0,1,2.206-2.932,8.841,8.841,0,0,1,2.833-2.213l.01,0,.032-.015c.059-.022.091-.031.093-.031l-.026.005v0l.465-.2A.831.831,0,0,0,120.777,153.436Z" transform="translate(-105.27 -146.783)" fill="#fff"/>
  </g>
</svg>
