<svg id="chinese-food" xmlns="http://www.w3.org/2000/svg" width="68.703" height="73.269" viewBox="0 0 68.703 73.269">
  <path id="Caminho_386" data-name="Caminho 386" d="M194.073,59.581l-.411-.2a.942.942,0,0,1-.449-1.243L216.277,8.058a.941.941,0,0,1,1.259-.456l1.765.842a.941.941,0,0,1,.438,1.266L195.322,59.149A.941.941,0,0,1,194.073,59.581Zm0,0" transform="translate(-165.489 -6.436)" fill="#c1752f"/>
  <path id="Caminho_387" data-name="Caminho 387" d="M210.38,75.226l.373.262a.941.941,0,0,0,1.3-.219l32.306-44.686a.941.941,0,0,0-.222-1.321l-1.6-1.124a.941.941,0,0,0-1.318.239L210.144,73.925A.942.942,0,0,0,210.38,75.226Zm0,0" transform="translate(-179.931 -23.965)" fill="#c1752f"/>
  <path id="Caminho_388" data-name="Caminho 388" d="M301.23,192.83a12.143,12.143,0,1,1-12.143-12.143A12.143,12.143,0,0,1,301.23,192.83Zm0,0" transform="translate(-237.314 -154.831)" fill="#f3e8d7"/>
  <path id="Caminho_389" data-name="Caminho 389" d="M337.9,180.688a12.122,12.122,0,0,0-3.991.674,12.143,12.143,0,0,1,0,22.937,12.143,12.143,0,1,0,3.991-23.611Zm0,0" transform="translate(-286.127 -154.831)" fill="#eaddcc"/>
  <path id="Caminho_390" data-name="Caminho 390" d="M321.988,217.75a7.98,7.98,0,1,1-7.98-7.981A7.981,7.981,0,0,1,321.988,217.75Zm0,0" transform="translate(-262.234 -179.751)" fill="#e5d8c6"/>
  <path id="Caminho_391" data-name="Caminho 391" d="M337.9,209.77a7.939,7.939,0,0,0-3.991,1.07,7.978,7.978,0,0,1,0,13.821A7.98,7.98,0,1,0,337.9,209.77Zm0,0" transform="translate(-286.127 -179.751)" fill="#d8c9b6"/>
  <path id="Caminho_392" data-name="Caminho 392" d="M342.78,242.711a3.812,3.812,0,1,1-3.812-3.812A3.812,3.812,0,0,1,342.78,242.711Zm0,0" transform="translate(-287.194 -204.711)" fill="#f3e8d7"/>
  <path id="Caminho_393" data-name="Caminho 393" d="M121.277,123.838A12.143,12.143,0,1,1,109.135,111.7,12.142,12.142,0,0,1,121.277,123.838Zm0,0" transform="translate(-83.112 -95.711)" fill="#f3e8d7"/>
  <path id="Caminho_394" data-name="Caminho 394" d="M156.9,111.7a12.129,12.129,0,0,0-4.165.733,12.147,12.147,0,0,1,0,22.818A12.144,12.144,0,1,0,156.9,111.7Zm0,0" transform="translate(-130.881 -95.711)" fill="#eaddcc"/>
  <path id="Caminho_395" data-name="Caminho 395" d="M142.039,148.762a7.98,7.98,0,1,1-7.981-7.98A7.981,7.981,0,0,1,142.039,148.762Zm0,0" transform="translate(-108.036 -120.635)" fill="#e5d8c6"/>
  <path id="Caminho_396" data-name="Caminho 396" d="M157.275,140.781a7.945,7.945,0,0,0-4.1,1.135,7.982,7.982,0,0,1,0,13.691,7.981,7.981,0,1,0,4.1-14.826Zm0,0" transform="translate(-131.253 -120.635)" fill="#d8c9b6"/>
  <path id="Caminho_397" data-name="Caminho 397" d="M162.831,173.722a3.812,3.812,0,1,1-3.812-3.812A3.812,3.812,0,0,1,162.831,173.722Zm0,0" transform="translate(-132.996 -145.595)" fill="#f3e8d7"/>
  <path id="Caminho_398" data-name="Caminho 398" d="M184.328,192.83a12.143,12.143,0,1,1-12.143-12.143A12.142,12.142,0,0,1,184.328,192.83Zm0,0" transform="translate(-137.14 -154.831)" fill="#f3e8d7"/>
  <path id="Caminho_399" data-name="Caminho 399" d="M219.954,180.688a12.116,12.116,0,0,0-4.165.733,12.147,12.147,0,0,1,0,22.818,12.144,12.144,0,1,0,4.165-23.552Zm0,0" transform="translate(-184.909 -154.831)" fill="#eaddcc"/>
  <path id="Caminho_400" data-name="Caminho 400" d="M205.09,217.75a7.981,7.981,0,1,1-7.981-7.981A7.981,7.981,0,0,1,205.09,217.75Zm0,0" transform="translate(-162.064 -179.751)" fill="#e5d8c6"/>
  <path id="Caminho_401" data-name="Caminho 401" d="M220.058,209.77a7.945,7.945,0,0,0-4.148,1.162,7.982,7.982,0,0,1,0,13.638,7.981,7.981,0,1,0,4.148-14.8Zm0,0" transform="translate(-185.013 -179.751)" fill="#d8c9b6"/>
  <path id="Caminho_402" data-name="Caminho 402" d="M225.882,242.711a3.812,3.812,0,1,1-3.812-3.812A3.812,3.812,0,0,1,225.882,242.711Zm0,0" transform="translate(-187.024 -204.711)" fill="#f3e8d7"/>
  <path id="Caminho_403" data-name="Caminho 403" d="M57.734,192.83a12.143,12.143,0,1,1-12.143-12.143A12.143,12.143,0,0,1,57.734,192.83Zm0,0" transform="translate(-28.663 -154.831)" fill="#f3e8d7"/>
  <path id="Caminho_404" data-name="Caminho 404" d="M93.588,180.688a12.117,12.117,0,0,0-4.127.721,12.146,12.146,0,0,1,0,22.844,12.143,12.143,0,1,0,4.127-23.564Zm0,0" transform="translate(-76.659 -154.831)" fill="#eaddcc"/>
  <path id="Caminho_405" data-name="Caminho 405" d="M78.492,217.75a7.981,7.981,0,1,1-7.98-7.981A7.981,7.981,0,0,1,78.492,217.75Zm0,0" transform="translate(-53.583 -179.751)" fill="#e5d8c6"/>
  <path id="Caminho_406" data-name="Caminho 406" d="M93.464,209.77a7.942,7.942,0,0,0-4.148,1.162,7.983,7.983,0,0,1,0,13.638,7.981,7.981,0,1,0,4.148-14.8Zm0,0" transform="translate(-76.535 -179.751)" fill="#d8c9b6"/>
  <path id="Caminho_407" data-name="Caminho 407" d="M99.284,242.711a3.812,3.812,0,1,1-3.812-3.812A3.812,3.812,0,0,1,99.284,242.711Zm0,0" transform="translate(-78.543 -204.711)" fill="#f3e8d7"/>
  <path id="Caminho_408" data-name="Caminho 408" d="M8.158,265.539a.658.658,0,0,0-.655.723c.675,6.757,3.628,19.181,15.818,26.949a1.2,1.2,0,0,0,.3.138v4.05a2.335,2.335,0,0,0,2.335,2.336H55.607a2.335,2.335,0,0,0,2.335-2.336v-4.054a1.211,1.211,0,0,0,.292-.134c12.189-7.768,15.142-20.192,15.817-26.949a.657.657,0,0,0-.655-.723Zm0,0" transform="translate(-6.427 -227.54)" fill="#33d8dd"/>
  <path id="Caminho_409" data-name="Caminho 409" d="M154.133,459.906H120.547a1.254,1.254,0,0,1-.359-.054v4.05a2.335,2.335,0,0,0,2.335,2.336h29.646A2.335,2.335,0,0,0,154.5,463.9v-4.054A1.246,1.246,0,0,1,154.133,459.906Zm0,0" transform="translate(-102.988 -394.042)" fill="#2ecccc"/>
  <path id="Caminho_410" data-name="Caminho 410" d="M309.442,459.906h-8.008v6.332h6.044a2.336,2.336,0,0,0,2.336-2.336v-4.054A1.247,1.247,0,0,1,309.442,459.906Zm0,0" transform="translate(-258.298 -394.042)" fill="#23b5b1"/>
  <path id="Caminho_411" data-name="Caminho 411" d="M120.547,459.933a1.254,1.254,0,0,1-.359-.054v.054Zm0,0" transform="translate(-102.988 -394.069)" fill="#25b9c0"/>
  <path id="Caminho_412" data-name="Caminho 412" d="M120.441,490.518a2.318,2.318,0,0,1-.172-.67A2.318,2.318,0,0,0,120.441,490.518Zm0,0" transform="translate(-103.059 -419.749)" fill="#25b9c0"/>
  <path id="Caminho_413" data-name="Caminho 413" d="M325.269,265.539h-7.908c-.14,15.238-14.884,27.524-15.927,27.864h8.008a1.23,1.23,0,0,0,.372-.059,1.2,1.2,0,0,0,.292-.134c12.189-7.768,15.143-20.192,15.818-26.949A.658.658,0,0,0,325.269,265.539Zm0,0" transform="translate(-258.298 -227.54)" fill="#2cc6c2"/>
  <path id="Caminho_414" data-name="Caminho 414" d="M68.256,37.495a1.737,1.737,0,0,0-1.284-.57H64.947a13.073,13.073,0,0,0-2.661-6.938,1.073,1.073,0,1,0-1.707,1.3,10.942,10.942,0,0,1,2.211,5.635H60.762a9.049,9.049,0,0,0-14.584-6.041,13.264,13.264,0,0,0-1.214-1.608,11.013,11.013,0,0,1,1.023-.709L46,28.561a11.138,11.138,0,0,1,1.333-.7l.131-.056c.115-.049.23-.1.346-.14.075-.029.151-.058.227-.084l.175-.063c.119-.04.238-.078.358-.114l.161-.048q.184-.053.371-.1l.165-.039q.141-.033.283-.061c.088-.018.176-.035.264-.05s.16-.028.241-.041l.224-.033a11.068,11.068,0,0,1,6.847,1.274,1.074,1.074,0,0,0,1.039-1.879A13.216,13.216,0,0,0,52.6,24.81L65.3,7.247a2.014,2.014,0,0,0-.474-2.829h0l-1.6-1.124a2.014,2.014,0,0,0-2.822.513L44.683,26.848a13.248,13.248,0,0,0-1.273.927l-.045-.036L55.213,3.75a2.015,2.015,0,0,0-.939-2.711L52.51.2a2.014,2.014,0,0,0-2.7.975L38.856,24.967a13.215,13.215,0,0,0-25.752.382A13.247,13.247,0,0,0,3.757,36.926H1.731a1.732,1.732,0,0,0-1.723,1.9c.689,6.887,3.7,19.6,16.117,27.624V69.86a3.413,3.413,0,0,0,3.409,3.409H49.18a3.413,3.413,0,0,0,3.409-3.409V66.446A34.257,34.257,0,0,0,66.1,49.754c.344-.882.661-1.793.944-2.708.228-.738.438-1.5.624-2.252a42.5,42.5,0,0,0,1.03-5.965A1.736,1.736,0,0,0,68.256,37.495ZM62.1,5.129l1.38.969L49.875,24.919c-.062.009-.124.021-.186.031-.093.015-.187.03-.279.047s-.164.03-.245.046q-.218.043-.433.094l-.206.051-.132.033ZM51.774,31.092A6.918,6.918,0,0,1,58.6,36.925H56.54A4.882,4.882,0,0,0,47.92,35a13.071,13.071,0,0,0-.715-2.181A6.93,6.93,0,0,1,51.774,31.092Zm2.519,5.833H49.255a2.738,2.738,0,0,1,5.038,0ZM51.707,2.193l1.522.726L41.576,26.512q-.421-.24-.861-.45ZM38.957,27.647c.086.032.17.065.255.1l.136.058q.2.086.4.18l.177.084.2.1.213.114q.112.061.224.125c.093.054.186.109.278.165l.154.1c.079.05.157.1.234.154l.135.092a11.144,11.144,0,0,1,3.761,4.52l.017.038a10.979,10.979,0,0,1,.912,3.429l0,.018H44.034A9.052,9.052,0,0,0,28.544,31.7a13.261,13.261,0,0,0-1.117-1.726,11.054,11.054,0,0,1,11.531-2.325Zm-3.912,5.467a4.894,4.894,0,0,0-4.765,3.812H30.1c0-.008,0-.016,0-.024q-.017-.2-.04-.4c0-.037-.008-.074-.013-.112q-.028-.221-.061-.439c-.005-.032-.011-.065-.016-.1q-.027-.164-.058-.325a.154.154,0,0,0,0-.016l-.008-.04c-.006-.031-.012-.063-.018-.094-.03-.145-.061-.288-.1-.43-.009-.038-.018-.075-.028-.113-.019-.077-.039-.154-.059-.23l0-.006c-.015-.055-.03-.11-.045-.165l-.016-.056c-.021-.074-.044-.148-.066-.221a.061.061,0,0,1,0-.01c-.018-.06-.037-.119-.056-.179l-.021-.07a6.906,6.906,0,0,1,12.376,3.032H39.81A4.892,4.892,0,0,0,35.045,33.114Zm2.519,3.812H32.526a2.738,2.738,0,0,1,5.038,0ZM26.022,25.388a2.748,2.748,0,0,1,2.291,1.243,13.226,13.226,0,0,0-2.329,1.752,13.279,13.279,0,0,0-2.273-1.722A2.743,2.743,0,0,1,26.022,25.388Zm-4.243.318a13.064,13.064,0,0,0-1.964-.6,6.9,6.9,0,0,1,12.409-.012,13.211,13.211,0,0,0-1.97.6,4.884,4.884,0,0,0-8.474.02ZM18.8,19.736a11.069,11.069,0,0,1,17.8,5.139,13.269,13.269,0,0,0-1.557-.092c-.2,0-.4.006-.605.015a9.051,9.051,0,0,0-16.836,0q-.335-.017-.675-.017a13.278,13.278,0,0,0-1.484.084A11.1,11.1,0,0,1,18.8,19.736ZM16.929,26.93A11.083,11.083,0,0,1,26.9,33.191c.015.031.029.062.042.093q.087.184.168.369c.026.063.051.125.077.188.039.094.077.189.112.285.03.079.057.159.085.239s.056.162.083.244.055.178.082.268.044.15.064.226q.039.141.073.283.027.112.052.225c.021.1.041.19.059.286.015.078.029.157.042.235s.031.186.045.279.023.175.034.263.021.167.029.252H25.917a9.052,9.052,0,0,0-17.976,0H5.913A11.084,11.084,0,0,1,16.929,26.93Zm0,6.184a4.893,4.893,0,0,0-4.765,3.812H10.106a6.907,6.907,0,0,1,13.646,0H21.694A4.892,4.892,0,0,0,16.929,33.114Zm2.519,3.812H14.41a2.738,2.738,0,0,1,5.038,0ZM65.58,44.278c-.177.717-.376,1.435-.592,2.134-.267.866-.568,1.728-.893,2.561A32.147,32.147,0,0,1,51.233,64.765a.157.157,0,0,1-.037.015.184.184,0,0,1-.052.009H25.692a1.074,1.074,0,1,0,0,2.147h24.75v2.922a1.264,1.264,0,0,1-1.262,1.262H19.535a1.264,1.264,0,0,1-1.262-1.262V66.937H20.7a1.074,1.074,0,0,0,0-2.147H17.559a.178.178,0,0,1-.051-.008.132.132,0,0,1-.036-.016C5.928,57.41,2.934,45.7,2.193,39.072H66.509A40.375,40.375,0,0,1,65.58,44.278Zm0,0" transform="translate(0 0)"/>
</svg>
