<svg xmlns="http://www.w3.org/2000/svg" width="30" height="32.002" viewBox="0 0 30 32.002">
  <g id="google-play" transform="translate(-16.014 0)">
    <g id="Grupo_19" data-name="Grupo 19" transform="translate(18.032 0)">
      <g id="Grupo_18" data-name="Grupo 18" transform="translate(0 0)">
        <path id="Caminho_37" data-name="Caminho 37" d="M52.268.512A4.063,4.063,0,0,0,48.3.522l14.58,13.45,4.9-4.9Z" transform="translate(-48.302 0)" fill="#fff"/>
      </g>
    </g>
    <g id="Grupo_21" data-name="Grupo 21" transform="translate(16.014 1.898)">
      <g id="Grupo_20" data-name="Grupo 20" transform="translate(0)">
        <path id="Caminho_38" data-name="Caminho 38" d="M16.574,30.365a3.729,3.729,0,0,0-.56,1.954V56.611a3.742,3.742,0,0,0,.522,1.906L31.2,43.855Z" transform="translate(-16.014 -30.365)" fill="#fff"/>
      </g>
    </g>
    <g id="Grupo_23" data-name="Grupo 23" transform="translate(34.082 10.08)">
      <g id="Grupo_22" data-name="Grupo 22" transform="translate(0)">
        <path id="Caminho_39" data-name="Caminho 39" d="M315.024,163.855l-4.672-2.578-5.25,5.248,6.434,5.934,3.49-1.926a3.779,3.779,0,0,0,0-6.678Z" transform="translate(-305.102 -161.277)" fill="#fff"/>
      </g>
    </g>
    <g id="Grupo_25" data-name="Grupo 25" transform="translate(17.966 16.744)">
      <g id="Grupo_24" data-name="Grupo 24">
        <path id="Caminho_40" data-name="Caminho 40" d="M61.948,267.9l-14.7,14.7a4.054,4.054,0,0,0,4.032.038l16.674-9.2Z" transform="translate(-47.246 -267.901)" fill="#fff"/>
      </g>
    </g>
  </g>
</svg>
