<svg xmlns="http://www.w3.org/2000/svg" viewBox="0 0 278.1 69.33"><defs><style>.cls-1{fill:#fff;}.cls-2{fill:#7accc5;}.cls-3,.cls-4{fill:none;stroke:#7accc6;stroke-width:4.01px;}.cls-3{stroke-linecap:round;stroke-linejoin:round;}.cls-4{stroke-miterlimit:10;}</style></defs><title>Asset 2</title><g id="Layer_2" data-name="Layer 2"><g id="Layer_1-2" data-name="Layer 1"><path class="cls-1" d="M84,33.15c0-11.1,5.2-17.66,14-17.66S112,22,112,33.15s-5.2,17.61-14,17.61S84,44.19,84,33.15Zm22.17,0c0-7.6-3-12-8.18-12s-8.18,4.43-8.18,12,3,12,8.18,12S106.16,40.69,106.16,33.15Z"/><path class="cls-1" d="M150.53,40.26a24.3,24.3,0,0,1-4-.33c.09,3.88,3.17,5.74,6.48,5.74a14.22,14.22,0,0,0,6.47-2c1.75-.87,1.75,3.61.43,4.59a12.29,12.29,0,0,1-7.33,2.41C146.8,50.7,141,46.82,141,37.52c0-7.82,3.73-12.85,10.92-12.85,6.9,0,10.35,3.94,10.35,11.15C162.26,38.4,156.49,40.26,150.53,40.26Zm-.33-4.7c3.92,0,7-.71,7-1.53,0-2.68-1.75-4.48-5.06-4.48-3,0-5.44,1.59-5.48,5.8A26.88,26.88,0,0,0,150.2,35.55Z"/><path class="cls-1" d="M199,50a9,9,0,0,1-3.55.93c-2.5,0-4.44-1.75-4.44-7.11V29.16c-3,6.18-6.38,11.92-8.22,13.34a2,2,0,0,1-2.22,0c-1.8-1.42-5.2-7.11-8.18-13.29v19.9c0,2.19-5.53,2.19-5.53,0v-32c0-2.19,5.06-2,5.48-.71a86.6,86.6,0,0,0,9.36,18.37A88.93,88.93,0,0,0,191,16.42c.42-1.26,5.48-1.48,5.48.71V42.94c0,1.53.42,2.3,1.37,2.3A2.36,2.36,0,0,0,199,45C200.92,43.87,201,49,199,50Z"/><path class="cls-1" d="M210.85,40.26a24.3,24.3,0,0,1-4-.33c.09,3.88,3.17,5.74,6.48,5.74a14.22,14.22,0,0,0,6.47-2c1.75-.87,1.75,3.61.43,4.59a12.29,12.29,0,0,1-7.33,2.41c-5.81,0-11.63-3.88-11.63-13.18,0-7.82,3.73-12.85,10.92-12.85,6.9,0,10.35,3.94,10.35,11.15C222.57,38.4,216.81,40.26,210.85,40.26Zm-.33-4.7c3.92,0,7-.71,7-1.53,0-2.68-1.75-4.48-5.06-4.48-3,0-5.44,1.59-5.48,5.8A26.88,26.88,0,0,0,210.52,35.55Z"/><path class="cls-1" d="M276.64,49.77a9.55,9.55,0,0,1-3.69.93c-1.89,0-3.45-1.09-4.06-4a10.89,10.89,0,0,1-8.51,4c-4.73,0-7.61-3.44-7.61-9.13V28.06c0-2.57,5.48-5.3,5.48-2.73v14c0,4,1.56,5.8,4.4,5.8,1.89,0,3.92-1,6-3.77V26.26c0-2.19,5.53-2.19,5.53,0V42.61c0,1.59.47,2.35,1.42,2.35a2.37,2.37,0,0,0,1.09-.33C278.54,43.59,278.63,48.73,276.64,49.77Z"/><path class="cls-1" d="M249.23,45a2.22,2.22,0,0,1-1.09.27c-.95,0-1.42-.76-1.42-2.35v-9c0-5.74-2.88-9.19-7.61-9.19a10.62,10.62,0,0,0-5,1.24,7.45,7.45,0,0,0-3.56,4.34,5.33,5.33,0,0,0-.14.52c0-3.9-.45-5-.45-5-.47-1.48-4.63-1.64-4.63.44V49.12c0,2.19,5.53,2.19,5.53,0V34c2-2.68,4.06-3.72,6-3.72,2.84,0,4.39,1.75,4.39,5.8v7.76c0,5.3,1.89,7.11,4.35,7.11a9.59,9.59,0,0,0,3.69-.93C251.22,49.06,251.12,43.87,249.23,45Z"/><path class="cls-1" d="M138.91,45a2.22,2.22,0,0,1-1.09.27c-.95,0-1.42-.76-1.42-2.35v-9c0-5.74-2.88-9.19-7.61-9.19a10.62,10.62,0,0,0-5,1.24,7.45,7.45,0,0,0-3.56,4.34,5.33,5.33,0,0,0-.14.52c0-3.9-.45-5-.45-5-.47-1.48-4.63-1.64-4.63.44V49.12c0,2.19,5.53,2.19,5.53,0V34c2-2.68,4.06-3.72,6-3.72,2.84,0,4.39,1.75,4.39,5.8v7.76c0,5.3,1.89,7.11,4.35,7.11a9.59,9.59,0,0,0,3.69-.93C140.9,49.06,140.81,43.87,138.91,45Z"/><path class="cls-2" d="M48.54,48.84a7.47,7.47,0,0,1-3,.78c-2.09,0-3.71-1.46-3.71-5.94V31.4c-2.49,5.16-5.33,10-6.87,11.14a1.71,1.71,0,0,1-1.85,0c-1.5-1.19-4.34-5.93-6.83-11.09V48.06c0,1.83-4.62,1.83-4.62,0V21.36c0-1.83,4.22-1.64,4.58-.6A72.3,72.3,0,0,0,34.1,36.1a74.24,74.24,0,0,0,7.81-15.34c.35-1,4.58-1.23,4.58.6V42.9c0,1.28.35,1.92,1.14,1.92a2,2,0,0,0,.91-.23.64.64,0,0,1,.92.16C50.09,45.61,49.81,48.19,48.54,48.84Z"/><path class="cls-3" d="M5.46,49.24A32.65,32.65,0,0,1,50.85,6.3"/><path class="cls-3" d="M64,20.51a32.59,32.59,0,0,1-.94,30.36C54.32,66.6,34.14,71.94,18.48,63"/><path class="cls-4" d="M50.85,6.3"/><path class="cls-4" d="M50.85,6.3"/><path class="cls-3" d="M64.76,10.23a22,22,0,0,0-5.38-5.88c-2.52-2.14-7-.83-8.59,2h0a33.25,33.25,0,0,1,10,8.8"/><path class="cls-3" d="M50.85,6.3,50,7.39c-1.49,1.83-2.05,4.07.1,6.07a38.27,38.27,0,0,1,5.75,5.82"/><ellipse class="cls-3" cx="13.48" cy="58.85" rx="4.45" ry="6.55" transform="matrix(0.64, -0.77, 0.77, 0.64, -40.35, 31.52)"/></g></g></svg>