<svg id="menu" xmlns="http://www.w3.org/2000/svg" width="61.365" height="73.269" viewBox="0 0 61.365 73.269">
  <g id="Grupo_2754" data-name="Grupo 2754" transform="translate(1.086 5.815)">
    <path id="Caminho_422" data-name="Caminho 422" d="M14.576,45.225H9.886a2.3,2.3,0,1,1,0-4.592h4.689a2.3,2.3,0,1,1,0,4.592Zm0,0" transform="translate(-7.59 -40.633)" fill="#d8d6d4"/>
    <path id="Caminho_423" data-name="Caminho 423" d="M14.576,124.955H9.886a2.3,2.3,0,1,1,0-4.592h4.689a2.3,2.3,0,1,1,0,4.592Zm0,0" transform="translate(-7.59 -108.954)" fill="#d8d6d4"/>
    <path id="Caminho_424" data-name="Caminho 424" d="M14.576,204.685H9.886a2.3,2.3,0,1,1,0-4.592h4.689a2.3,2.3,0,1,1,0,4.592Zm0,0" transform="translate(-7.59 -177.274)" fill="#d8d6d4"/>
    <path id="Caminho_425" data-name="Caminho 425" d="M14.576,284.412H9.886a2.3,2.3,0,1,1,0-4.592h4.689a2.3,2.3,0,1,1,0,4.592Zm0,0" transform="translate(-7.59 -245.592)" fill="#d8d6d4"/>
    <path id="Caminho_426" data-name="Caminho 426" d="M14.576,364.142H9.886a2.3,2.3,0,1,1,0-4.592h4.689a2.3,2.3,0,1,1,0,4.592Zm0,0" transform="translate(-7.59 -313.913)" fill="#d8d6d4"/>
    <path id="Caminho_427" data-name="Caminho 427" d="M14.576,443.873H9.886a2.3,2.3,0,1,1,0-4.592h4.689a2.3,2.3,0,1,1,0,4.592Zm0,0" transform="translate(-7.59 -382.234)" fill="#d8d6d4"/>
  </g>
  <path id="Caminho_428" data-name="Caminho 428" d="M91.418,78.686H39.981a1.68,1.68,0,0,1-1.68-1.68V9.27a1.68,1.68,0,0,1,1.68-1.68H91.418A1.68,1.68,0,0,1,93.1,9.27V77.007A1.68,1.68,0,0,1,91.418,78.686Zm0,0" transform="translate(-32.82 -6.504)" fill="#e88c38"/>
  <path id="Caminho_429" data-name="Caminho 429" d="M369.535,7.59h-6.672v71.1h6.672a1.68,1.68,0,0,0,1.68-1.68V9.27A1.68,1.68,0,0,0,369.535,7.59Zm0,0" transform="translate(-310.936 -6.504)" fill="#d38231"/>
  <path id="Caminho_430" data-name="Caminho 430" d="M217.394,87.44h-3.985l-.4-3.812a1.238,1.238,0,0,1,1.231-1.366h2.32a1.238,1.238,0,0,1,1.231,1.366Zm0,0" transform="translate(-182.522 -70.49)" fill="#fff"/>
  <path id="Caminho_431" data-name="Caminho 431" d="M153.752,128.436H123.273v-1.295a15.239,15.239,0,1,1,30.478,0Zm0,0" transform="translate(-105.633 -95.889)" fill="#e2e2e2"/>
  <path id="Caminho_432" data-name="Caminho 432" d="M204.758,111.9a15.247,15.247,0,0,0-4.176.58,15.246,15.246,0,0,1,11.063,14.66v1.295H220v-1.295A15.24,15.24,0,0,0,204.758,111.9Zm0,0" transform="translate(-171.878 -95.889)" fill="#c9c9c9"/>
  <path id="Caminho_433" data-name="Caminho 433" d="M139.579,219.719H104.871a.605.605,0,0,0-.605.6v2.242a.605.605,0,0,0,.605.6h34.708a.6.6,0,0,0,.6-.6v-2.242A.6.6,0,0,0,139.579,219.719Zm0,0" transform="translate(-89.345 -188.276)" fill="#d8d6d4"/>
  <path id="Caminho_434" data-name="Caminho 434" d="M110.173,344.661a.611.611,0,0,1-.566.334.593.593,0,0,1-.553-.334l-1.48-2.779v5.634c0,.348-.424.528-.836.528s-.836-.18-.836-.528v-8.04a.767.767,0,0,1,.836-.836c.6,0,.875.129,1.3.887l1.583,2.882,1.582-2.882c.425-.759.708-.887,1.313-.887a.767.767,0,0,1,.836.836v8.04c0,.348-.424.528-.836.528s-.836-.18-.836-.528v-5.531Zm0,0" transform="translate(-90.747 -290.18)"/>
  <path id="Caminho_435" data-name="Caminho 435" d="M180.469,342.676h1.955c.334,0,.527.322.527.669a.582.582,0,0,1-.527.643h-1.955v2.585h3.64c.335,0,.528.347.528.746,0,.347-.167.721-.528.721H179.53c-.373,0-.733-.181-.733-.528v-8.349c0-.347.36-.528.733-.528h4.579c.361,0,.528.373.528.721,0,.4-.193.746-.528.746h-3.64Zm0,0" transform="translate(-153.211 -290.177)"/>
  <path id="Caminho_436" data-name="Caminho 436" d="M240.942,347.513l-2.766-5.171v5.171c0,.348-.424.528-.836.528s-.836-.18-.836-.528v-8.349c0-.36.412-.527.836-.527.6,0,.849.129,1.248.887l2.482,4.8v-5.171c0-.36.411-.515.836-.515s.836.154.836.515v8.361c0,.347-.424.528-.836.528A1,1,0,0,1,240.942,347.513Zm0,0" transform="translate(-202.66 -290.177)"/>
  <path id="Caminho_437" data-name="Caminho 437" d="M305.186,339.155c0-.36.411-.514.836-.514s.836.154.836.514v6.02c0,2.148-1.363,2.946-3.087,2.946s-3.087-.8-3.087-2.946v-6.02c0-.36.411-.514.836-.514s.836.154.836.514v6.02a1.416,1.416,0,1,0,2.83,0v-6.02Zm0,0" transform="translate(-257.655 -290.18)"/>
  <path id="Caminho_438" data-name="Caminho 438" d="M312.135,422.148H306.02a1.086,1.086,0,1,0,0,2.172h6.115a1.086,1.086,0,1,0,0-2.172Zm0,0" transform="translate(-261.297 -361.738)"/>
  <path id="Caminho_439" data-name="Caminho 439" d="M122.51,422.148H97.762a1.086,1.086,0,1,0,0,2.172H122.51a1.086,1.086,0,1,0,0-2.172Zm0,0" transform="translate(-82.841 -361.738)"/>
  <path id="Caminho_440" data-name="Caminho 440" d="M133.68,306.242H97.762a1.086,1.086,0,1,0,0,2.172H133.68a1.086,1.086,0,1,0,0-2.172Zm0,0" transform="translate(-82.841 -262.418)"/>
  <path id="Caminho_441" data-name="Caminho 441" d="M133.075,94.339h-1.054a16.357,16.357,0,0,0-13.038-15.1l.21-2a2.324,2.324,0,0,0-2.311-2.566h-2.32a2.323,2.323,0,0,0-2.311,2.566l.21,2a16.357,16.357,0,0,0-13.038,15.1H98.367a1.693,1.693,0,0,0-1.691,1.691v2.242a1.693,1.693,0,0,0,1.691,1.691h34.708a1.693,1.693,0,0,0,1.691-1.691V96.029A1.692,1.692,0,0,0,133.075,94.339ZM114.448,76.891a.147.147,0,0,1,.113-.05h2.32a.148.148,0,0,1,.113.05.145.145,0,0,1,.038.117l-.2,1.941c-.366-.025-.736-.039-1.108-.039s-.742.014-1.108.039l-.2-1.941A.149.149,0,0,1,114.448,76.891Zm18.146,20.9H98.849V96.511h4.578a1.086,1.086,0,1,0,0-2.172H101.6a14.152,14.152,0,0,1,28.247,0H108.481a1.086,1.086,0,1,0,0,2.172h24.113Zm0,0" transform="translate(-82.841 -63.983)"/>
  <path id="Caminho_442" data-name="Caminho 442" d="M58.6,0H7.161A2.769,2.769,0,0,0,4.4,2.766V4.728H3.382a3.382,3.382,0,0,0,0,6.765H4.4v4.645H3.382a3.382,3.382,0,0,0,0,6.764H4.4v4.645H3.382a3.382,3.382,0,0,0,0,6.764H4.4v4.645H3.382a3.382,3.382,0,0,0,0,6.764H4.4v4.645H3.382a3.382,3.382,0,0,0,0,6.764H4.4v4.645H3.382a3.382,3.382,0,0,0,0,6.764H4.4V70.5a2.769,2.769,0,0,0,2.766,2.766H58.6A2.77,2.77,0,0,0,61.365,70.5V2.766A2.77,2.77,0,0,0,58.6,0ZM4.395,9.321H3.382a1.21,1.21,0,0,1,0-2.42H4.395Zm0,11.409H3.382a1.21,1.21,0,0,1,0-2.419H4.395Zm0,11.41H3.382a1.21,1.21,0,0,1,0-2.42H4.395Zm0,11.41H3.382a1.21,1.21,0,0,1,0-2.42H4.395Zm0,11.409H3.382a1.21,1.21,0,0,1,0-2.419H4.395Zm0,11.41H3.382a1.21,1.21,0,0,1,0-2.419H4.395Zm54.8,4.134a.6.6,0,0,1-.594.594H7.161a.6.6,0,0,1-.594-.594V2.766a.594.594,0,0,1,.594-.594H58.6a.594.594,0,0,1,.594.594Zm0,0"/>
</svg>
