<svg xmlns="http://www.w3.org/2000/svg" width="170" height="42.382" viewBox="0 0 170 42.382">
  <g id="Grupo_2731" data-name="Grupo 2731" transform="translate(-0.011 -0.014)">
    <path id="Caminho_1" data-name="Caminho 1" d="M92.543,15.486c-5.375,0-8.554,4.012-8.554,10.8,0,6.753,3.179,10.763,8.554,10.763s8.552-4.011,8.552-10.763C101.095,19.5,97.917,15.486,92.543,15.486Zm0,18.118c-3.178,0-5-2.708-5-7.321,0-4.646,1.82-7.353,5-7.353,3.15,0,5,2.707,5,7.353C97.541,30.9,95.692,33.6,92.543,33.6Z" transform="translate(-32.641 -6.014)" fill="#fff"/>
    <path id="Caminho_2" data-name="Caminho 2" d="M153.99,31.492c0-4.412-2.11-6.819-6.328-6.819-4.392,0-6.675,3.074-6.675,7.855,0,5.682,3.554,8.055,7.108,8.055a7.512,7.512,0,0,0,4.479-1.47c.811-.6.811-3.343-.26-2.808a8.7,8.7,0,0,1-3.958,1.2c-2.023,0-3.9-1.136-3.96-3.51a14.854,14.854,0,0,0,2.428.2C150.464,34.2,153.99,33.063,153.99,31.492Zm-9.535-.3c.029-2.574,1.5-3.544,3.351-3.544,2.024,0,3.093,1.1,3.093,2.741,0,.5-1.879.935-4.277.935A16.508,16.508,0,0,1,144.454,31.191Z" transform="translate(-54.795 -9.584)" fill="#fff"/>
    <path id="Caminho_3" data-name="Caminho 3" d="M186.494,36.608a5.461,5.461,0,0,1-2.168.569c-1.531,0-2.715-1.07-2.715-4.346V23.839c-1.82,3.778-3.9,7.287-5.028,8.156a1.249,1.249,0,0,1-1.358,0c-1.1-.869-3.177-4.345-5-8.123V36.039c0,1.337-3.38,1.337-3.38,0V16.486c0-1.338,3.091-1.2,3.352-.436a52.955,52.955,0,0,0,5.72,11.231A54.406,54.406,0,0,0,181.64,16.05c.259-.768,3.351-.9,3.351.436V32.262c0,.937.259,1.4.837,1.4a1.439,1.439,0,0,0,.665-.167c1.184-.669,1.242,2.473,0,3.109" transform="translate(-64.846 -6.009)" fill="#fff"/>
    <path id="Caminho_4" data-name="Caminho 4" d="M214.306,31.492c0-4.412-2.11-6.819-6.328-6.819-4.392,0-6.675,3.074-6.675,7.855,0,5.682,3.554,8.055,7.108,8.055a7.514,7.514,0,0,0,4.479-1.47c.81-.6.81-3.343-.26-2.808a8.7,8.7,0,0,1-3.958,1.2c-2.023,0-3.9-1.136-3.96-3.51a14.854,14.854,0,0,0,2.428.2C210.78,34.2,214.306,33.063,214.306,31.492Zm-9.535-.3c.029-2.574,1.5-3.544,3.352-3.544,2.023,0,3.092,1.1,3.092,2.741,0,.5-1.879.935-4.277.935A16.51,16.51,0,0,1,204.77,31.191Z" transform="translate(-78.239 -9.584)" fill="#fff"/>
    <path id="Caminho_5" data-name="Caminho 5" d="M267.367,39.869a5.84,5.84,0,0,1-2.253.569c-1.155,0-2.11-.668-2.485-2.473a6.659,6.659,0,0,1-5.2,2.473c-2.89,0-4.652-2.105-4.652-5.583V26.6c0-1.57,3.351-3.242,3.351-1.67v8.557c0,2.44.954,3.543,2.687,3.543,1.155,0,2.4-.636,3.64-2.308V25.5c0-1.338,3.381-1.338,3.381,0v9.994c0,.97.289,1.437.867,1.437a1.444,1.444,0,0,0,.664-.2c1.157-.635,1.215,2.508,0,3.142" transform="translate(-98.245 -9.439)" fill="#fff"/>
    <path id="Caminho_6" data-name="Caminho 6" d="M239.935,37.075a1.355,1.355,0,0,1-.664.166c-.578,0-.867-.467-.867-1.437V30.289c0-3.509-1.763-5.615-4.651-5.615a6.5,6.5,0,0,0-3.062.755,4.561,4.561,0,0,0-2.179,2.656,3.29,3.29,0,0,0-.086.32,10.216,10.216,0,0,0-.278-3.029c-.289-.9-2.832-1-2.832.268V39.615c0,1.337,3.38,1.337,3.38,0V30.389c1.243-1.638,2.485-2.272,3.642-2.272,1.733,0,2.686,1.069,2.686,3.543v4.746c0,3.243,1.157,4.346,2.659,4.346a5.851,5.851,0,0,0,2.253-.569c1.215-.6,1.157-3.778,0-3.109" transform="translate(-87.572 -9.585)" fill="#fff"/>
    <path id="Caminho_7" data-name="Caminho 7" d="M129.618,37.075a1.355,1.355,0,0,1-.664.166c-.578,0-.867-.467-.867-1.437V30.289c0-3.509-1.763-5.615-4.651-5.615a6.494,6.494,0,0,0-3.062.755,4.556,4.556,0,0,0-2.179,2.656,3.211,3.211,0,0,0-.087.32,10.208,10.208,0,0,0-.278-3.029c-.289-.9-2.832-1-2.832.268V39.615c0,1.337,3.38,1.337,3.38,0V30.389c1.243-1.638,2.485-2.272,3.642-2.272,1.733,0,2.686,1.069,2.686,3.543v4.746c0,3.243,1.157,4.346,2.659,4.346a5.851,5.851,0,0,0,2.253-.569c1.215-.6,1.157-3.778,0-3.109" transform="translate(-44.693 -9.585)" fill="#fff"/>
    <g id="Grupo_1" data-name="Grupo 1" transform="translate(0.011 0.014)">
      <path id="Caminho_8" data-name="Caminho 8" d="M4.43,29.542a18.73,18.73,0,0,1,24.8-25.271,3.554,3.554,0,0,0,.554,4.864.986.986,0,0,0,.082.07,22.381,22.381,0,0,1,3.31,3.354,1.224,1.224,0,0,0,1.916-1.525,24.758,24.758,0,0,0-3.677-3.726c-.3-.284-.76-.793-.067-1.79a19.759,19.759,0,0,1,4.843,4.507,1.224,1.224,0,1,0,1.954-1.474,22.12,22.12,0,0,0-5.162-4.889,2.955,2.955,0,0,1,1.009-.381,1.871,1.871,0,0,1,1.522.318,1.482,1.482,0,0,0,.122.092A12.73,12.73,0,0,1,38.583,6.95a1.224,1.224,0,1,0,2.025-1.376,15.26,15.26,0,0,0-3.565-3.885,4.227,4.227,0,0,0-3.477-.82A5.381,5.381,0,0,0,30.779,2.3,21.182,21.182,0,0,0,2.255,30.667,1.224,1.224,0,0,0,4.43,29.542Z" transform="translate(-0.011 -0.014)" fill="#fff"/>
      <path id="Caminho_9" data-name="Caminho 9" d="M42.468,19.191a1.224,1.224,0,0,0-2.2,1.078,18.78,18.78,0,0,1-.543,17.421,18.306,18.306,0,0,1-11.174,8.742A18.744,18.744,0,0,1,15.13,45.175a5.351,5.351,0,0,0-2.146-5.037,6.311,6.311,0,0,0-3.35-1.48,3.589,3.589,0,0,0-3.194,1.16,3.6,3.6,0,0,0-.567,3.351A6.315,6.315,0,0,0,7.931,46.2a6.091,6.091,0,0,0,3.812,1.508,3.719,3.719,0,0,0,1.953-.52,21.146,21.146,0,0,0,9.75,2.4,21.509,21.509,0,0,0,5.763-.792,20.739,20.739,0,0,0,12.655-9.908A21.227,21.227,0,0,0,42.468,19.191ZM9.5,44.318a3.908,3.908,0,0,1-1.273-1.824,1.3,1.3,0,0,1,.094-1.108h0a1.113,1.113,0,0,1,.855-.3c.086,0,.161,0,.217.01a3.908,3.908,0,0,1,2.023.924c1.156.964,1.574,2.231,1.236,2.826a1.269,1.269,0,0,0-.145.176C11.986,45.467,10.659,45.286,9.5,44.318Z" transform="translate(-2.222 -7.201)" fill="#fff"/>
      <path id="Caminho_10" data-name="Caminho 10" d="M38.111,37.619a4.567,4.567,0,0,1-1.809.474c-1.278,0-2.267-.894-2.267-3.628V26.959c-1.519,3.154-3.257,6.084-4.2,6.809a1.044,1.044,0,0,1-1.134,0c-.916-.725-2.653-3.627-4.173-6.781V37.145c0,1.116-2.822,1.116-2.822,0V20.82c0-1.117,2.581-1.006,2.8-.364a44.226,44.226,0,0,0,4.776,9.377,45.4,45.4,0,0,0,4.777-9.377c.217-.642,2.8-.754,2.8.364V33.991c0,.782.217,1.173.7,1.173a1.2,1.2,0,0,0,.555-.139.389.389,0,0,1,.563.1,2.1,2.1,0,0,1-.563,2.5" transform="translate(-8.444 -7.773)" fill="#fff"/>
    </g>
  </g>
</svg>
